# AST/ASF file generated using VICON BodyLanguage
# -----------------------------------------------
:version 1.10
:name VICON
:units
  mass 1.0
  length 0.45
  angle deg
:documentation
   .ast/.asf automatically generated from VICON data using
   VICON BodyBuilder and BodyLanguage model FoxedUp or BRILLIANT.MOD
:root
   order TX TY TZ RX RY RZ
   axis XYZ
   position 0 0 0  
   orientation 0 0 0 
:bonedata
  begin
     id 1 
     name lhipjoint
     direction 0.692814 -0.645514 0.321437 
     length 2.38754 
     axis 0 0 0  XYZ
  end
  begin
     id 2 
     name lfemur
     direction 0.34202 -0.939693 0  
     length 6.41921  
     axis 0 0 20  XYZ
    dof rx ry rz
    limits (-160.0 20.0)
           (-70.0 70.0)
           (-60.0 70.0)
  end
  begin
     id 3 
     name ltibia
     direction 0.34202 -0.939693 0   
     length 6.98247   
     axis 0 0 20   XYZ
    dof rx
    limits (-10.0 170.0)
  end
  begin
     id 4 
     name lfoot
     direction 0.0947186 -0.260237 0.960888   
     length 1.83034   
     axis -90 7.62852e-016 20   XYZ
    dof rx rz
    limits (-45.0 90.0)
           (-70.0 20.0)
  end
  begin
     id 5 
     name ltoes
     direction 1.53538e-011 -4.21952e-011 1   
     length 0.920499   
     axis -90 7.62852e-016 20   XYZ
    dof rx
    limits (-90.0 20.0)
  end
  begin
     id 6 
     name rhipjoint
     direction -0.631686 -0.693949 0.345555   
     length 2.2209  
     axis 0 0 0  XYZ 
  end
  begin
     id 7 
     name rfemur
     direction -0.34202 -0.939693 0   
     length 6.49542   
     axis 0 0 -20   XYZ
    dof rx ry rz
    limits (-160.0 20.0)
           (-70.0 70.0)
           (-70.0 60.0)
  end
  begin
     id 8 
     name rtibia
     direction -0.34202 -0.939693 0   
     length 7.21712   
     axis 0 0 -20   XYZ
    dof rx
    limits (-10.0 170.0)
 end
 begin
     id 9 
     name rfoot
     direction -0.0825378 -0.226771 0.970444   
     length 1.89724  
     axis -90 -7.62852e-016 -20   XYZ
    dof rx rz
    limits (-45.0 90.0)
           (-20.0 70.0)
  end
  begin
     id 10 
     name rtoes
     direction -1.53515e-011 -4.22016e-011 1   
     length 0.955868   
     axis -90 -7.62852e-016 -20   XYZ
    dof rx
    limits (-90.0 20.0)
  end
  begin
     id 11 
     name lowerback
     direction -0.0104711 0.984802 -0.173368   
     length 1.84931   
     axis 0 0 0   XYZ
    dof rx ry rz
    limits (-20.0 45.0)
           (-30.0 30.0)
           (-30.0 30.0)
  end
  begin
     id 12 
     name upperback
     direction -0.00286433 0.999996 -0.000382853   
     length 1.85768   
     axis 0 0 0   XYZ
    dof rx ry rz
    limits (-20.0 45.0)
           (-30.0 30.0)
           (-30.0 30.0)
  end
  begin
     id 13 
     name thorax
     direction 0.00167534 0.996793 0.0800069   
     length 1.92   
     axis 0 0 0   XYZ
    dof rx ry rz
    limits (-20.0 45.0)
           (-30.0 30.0)
           (-30.0 30.0)
  end
  begin
     id 14 
     name lowerneck
     direction -0.0672491 0.995415 0.068018   
     length 1.58923   
     axis 0 0 0   XYZ
    dof rx ry rz
    limits (-20.0 45.0)
           (-30.0 30.0)
           (-30.0 30.0)
  end
  begin
     id 15 
     name upperneck
     direction 0.0958019 0.982476 -0.159884   
     length 1.60189   
     axis 0 0 0   XYZ
    dof rx ry rz
    limits (-20.0 45.0)
           (-30.0 30.0)
           (-30.0 30.0)
  end
  begin
     id 16
     name head
     direction 0.032989 0.997338 -0.0650226  
     length 1.61681  
     axis 0 0 0   XYZ
    dof rx ry rz
    limits (-20.0 45.0)
           (-30.0 30.0)
           (-30.0 30.0)
  end
  begin
     id 17 
     name lclavicle
     direction 0.954279 0.298875 -0.00496069  
     length 2.99449  
     axis 0 0 0   XYZ
    dof ry rz
    limits (-20.0 10.0)
           (0.0 20.0)
  end
  begin
     id 18 
     name lhumerus
     direction 1 -4.48985e-011 -4.2057e-027   
     length 4.79185   
     axis 180 -30 -90   XYZ
    dof rx ry rz
    limits (-60.0 90.0)
           (-90.0 90.0)
           (-90.0 90.0)
  end
  begin
     id 19
     name lradius
     direction 1 -4.48945e-011 1.15441e-028   
     length 2.65553   
     axis 180 -30 -90   XYZ
    dof rx
    limits (-10.0 170.0)
  end
  begin
     id 20
     name lwrist
     direction 1 -4.4899e-011 4.8894e-028   
     length 1.32777   
     axis -2.56392e-016 90 90   XYZ
    dof ry
    limits (-180.0 0.0)
 end
  begin
     id 21 
     name lhand
     direction 1 -4.48908e-011 9.7788e-028   
     length 0.743904   
     axis -6.23971e-016 90 90   XYZ
    dof rx rz
    limits (-90.0 90.0)
           (-45.0 45.0)
  end
  begin
     id 22 
     name lfingers
     direction 1 -4.49068e-011 1.95576e-027   
     length 0.599754   
     axis -1.24794e-015 90 90   XYZ
    dof rx
    limits (0.0 90.0)
  end
  begin
     id 23
     name lthumb
     direction 0.707107 -6.34883e-011 0.707107   
     length 0.861131   
     axis -90 45 2.85299e-015   XYZ
    dof rx rz
    limits (-45.0 45.0)
           (-45.0 45.0)
  end
  begin
     id 24 
     name rclavicle
     direction -0.957921 0.286916 0.00811568   
     length 3.06817  
     axis 0 0 0   XYZ 
    dof ry rz
    limits (-10.0 20.0)
           (-20.0 0.0)
  end
  begin
     id 25 
     name rhumerus
     direction -1 -4.48971e-011 -3.07942e-027  
     length 4.77254   
     axis 180 30 90   XYZ
    dof rx ry rz
    limits (-90.0 60.0)
           (-90.0 90.0)
           (-90.0 90.0)
  end
  begin
     id 26 
     name rradius
     direction -1 -4.48957e-011 -9.6815e-028   
     length 2.75995   
     axis 180 30 90   XYZ
    dof rx
    limits (-10.0 170.0)
  end
  begin
     id 27 
     name rwrist
     direction -1 -4.48979e-011 4.8894e-028   
     length 1.37997   
     axis -2.56392e-016 -90 -90   XYZ
    dof ry
    limits (-180.0 0.0)
  end
  begin
     id 28
     name rhand
     direction -1 -4.48906e-011 9.7788e-028   
     length 0.701619   
     axis -6.23971e-016 -90 -90   XYZ
    dof rx rz
    limits (-90.0 90.0)
           (-45.0 45.0)
  end
  begin
     id 29
     name rfingers
     direction -1 -4.49018e-011 1.95576e-027   
     length 0.565663   
     axis -1.24794e-015 -90 -90   XYZ
    dof rx
    limits (0.0 90.0)
  end
  begin
     id 30
     name rthumb
     direction -0.707107 -6.34881e-011 0.707107   
     length 0.812183   
     axis -90 -45 -2.85299e-015   XYZ
    dof rx rz
    limits (-45.0 45.0)
           (-45.0 45.0)
  end
:hierarchy
  begin
    root lhipjoint rhipjoint lowerback
    lhipjoint lfemur
    lfemur ltibia
    ltibia lfoot
    lfoot ltoes
    rhipjoint rfemur
    rfemur rtibia
    rtibia rfoot
    rfoot rtoes
    lowerback upperback
    upperback thorax
    thorax lowerneck lclavicle rclavicle
    lowerneck upperneck
    upperneck head
    lclavicle lhumerus
    lhumerus lradius
    lradius lwrist
    lwrist lhand lthumb
    lhand lfingers
    rclavicle rhumerus
    rhumerus rradius
    rradius rwrist
    rwrist rhand rthumb
    rhand rfingers
  end

#!OML:ASF F:\VICON\USERDATA\INSTALL\rory3\rory3.ASF
:FULLY-SPECIFIED
:DEGREES
1
root 0.311254 16.1309 -0.0117847 -0.23471 -0.444897 -1.49459
lowerback 11.326 1.18962 -2.09682
upperback -0.204026 1.25622 -0.694301
thorax -6.60772 0.672071 0.240087
lowerneck 1.52999 -12.6515 -18.1435
upperneck 10.166 -18.4519 15.1477
head 5.9259 -9.25024 6.36161
rclavicle 1.1281e-014 -2.38542e-015
rhumerus -29.6209 3.02787 -94.5068
rradius 25.8821
rwrist 9.25824
rhand -15.8536 10.6535
rfingers 7.12502
rthumb 10.3414 -19.0722
lclavicle 1.1281e-014 -2.38542e-015
lhumerus -37.6678 -14.7094 90.4024
lradius 63.9258
lwrist 2.57469
lhand -5.94446 14.4303
lfingers 7.12502
lthumb 19.8857 43.433
rfemur 1.61926 12.5356 18.6477
rtibia 12.5241
rfoot -10.2407 -13.2351
rtoes -10.3061
lfemur 4.10654 -12.4175 -16.3258
ltibia 7.20786
lfoot -8.04206 10.8274
ltoes -11.6354
2
root 0.312068 16.1307 -0.0131341 -0.235454 -0.462408 -1.49626
lowerback 11.2918 1.18193 -2.0886
upperback -0.168016 1.24844 -0.697366
thorax -6.54978 0.667424 0.234798
lowerneck 1.42243 -12.6363 -18.1162
upperneck 10.3936 -18.4263 15.0555
head 5.99865 -9.23405 6.32171
rclavicle -6.55989e-015 1.27222e-014
rhumerus -29.5751 3.08314 -94.5363
rradius 25.8998
rwrist 9.2411
rhand -15.9691 10.5906
rfingers 7.12502
rthumb 10.23 -19.1407
lclavicle -6.55989e-015 1.27222e-014
lhumerus -37.5841 -14.7333 90.3875
lradius 63.9575
lwrist 2.53386
lhand -6.02168 14.3524
lfingers 7.12502
lthumb 19.8115 43.3627
rfemur 1.60761 12.4946 18.6397
rtibia 12.5204
rfoot -10.1724 -13.2173
rtoes -10.5282
lfemur 4.10394 -12.3998 -16.3318
ltibia 7.22174
lfoot -8.05814 10.8737
ltoes -11.775
3
root 0.312035 16.131 -0.0145935 -0.242661 -0.4653 -1.49662
lowerback 11.2775 1.1879 -2.078
upperback -0.138511 1.25798 -0.707724
thorax -6.51009 0.671185 0.217077
lowerneck 1.36882 -12.6288 -18.0893
upperneck 10.5814 -18.4182 14.9835
head 6.05509 -9.22842 6.29022
rclavicle -1.50579e-014 5.56597e-015
rhumerus -29.5159 3.04479 -94.5433
rradius 25.8923
rwrist 9.1911
rhand -16.0431 10.5708
rfingers 7.12502
rthumb 10.1586 -19.164
lclavicle -1.50579e-014 5.56597e-015
lhumerus -37.5448 -14.8005 90.4074
lradius 64.0297
lwrist 2.60551
lhand -6.12599 14.4425
lfingers 7.12502
lthumb 19.7112 43.4631
rfemur 1.61987 12.4936 18.6419
rtibia 12.5059
rfoot -10.1323 -13.2131
rtoes -10.6139
lfemur 4.10308 -12.3974 -16.333
ltibia 7.2377
lfoot -8.07074 10.8705
ltoes -11.8384
4
root 0.312344 16.1309 -0.0167199 -0.274257 -0.491492 -1.49629
lowerback 11.3026 1.19982 -2.06073
upperback -0.107698 1.27485 -0.722944
thorax -6.49117 0.678321 0.188464
lowerneck 1.24029 -12.6285 -18.057
upperneck 10.8727 -18.4163 14.8861
head 6.15473 -9.2226 6.24262
rclavicle -1.32192e-014 1.27222e-014
rhumerus -29.4786 3.01506 -94.5665
rradius 25.919
rwrist 9.10361
rhand -16.1217 10.5226
rfingers 7.12502
rthumb 10.0828 -19.2158
lclavicle -1.32192e-014 1.27222e-014
lhumerus -37.539 -14.8716 90.4058
lradius 64.1329
lwrist 2.68455
lhand -6.21903 14.4976
lfingers 7.12502
lthumb 19.6218 43.5273
rfemur 1.63434 12.5174 18.6398
rtibia 12.5087
rfoot -10.136 -13.2087
rtoes -10.7205
lfemur 4.13535 -12.3733 -16.3412
ltibia 7.23119
lfoot -8.04787 10.8906
ltoes -11.7705
5
root 0.313137 16.1305 -0.0186958 -0.309156 -0.527322 -1.53109
lowerback 11.3208 1.19721 -2.02124
upperback -0.0677109 1.27739 -0.712666
thorax -6.45841 0.678049 0.17685
lowerneck 1.05846 -12.609 -18.1537
upperneck 11.1978 -18.395 14.8874
head 6.29318 -9.20603 6.24365
rclavicle -2.71341e-014 3.97569e-015
rhumerus -29.4447 3.14067 -94.6019
rradius 25.9725
rwrist 8.94882
rhand -16.1966 10.5359
rfingers 7.12502
rthumb 10.0105 -19.206
lclavicle -2.71341e-014 3.97569e-015
lhumerus -37.5003 -14.8222 90.3863
lradius 64.2136
lwrist 2.70769
lhand -6.26012 14.4922
lfingers 7.12502
lthumb 19.5823 43.526
rfemur 1.6356 12.5452 18.6784
rtibia 12.5383
rfoot -10.1582 -13.2173
rtoes -10.7585
lfemur 4.19958 -12.3398 -16.3146
ltibia 7.17681
lfoot -8.04817 10.9084
ltoes -12.0055
6
root 0.313338 16.1304 -0.0196436 -0.282805 -0.525181 -1.49641
lowerback 11.2792 1.19178 -2.04046
upperback -0.0574836 1.2674 -0.736604
thorax -6.4238 0.673168 0.165211
lowerneck 0.923928 -12.603 -18.1795
upperneck 11.4861 -18.3922 14.8537
head 6.40534 -9.19955 6.2248
rclavicle -1.82882e-014 4.77083e-015
rhumerus -29.4302 3.10455 -94.612
rradius 25.9885
rwrist 8.94966
rhand -16.2014 10.6227
rfingers 7.12502
rthumb 10.0058 -19.1195
lclavicle -1.82882e-014 4.77083e-015
lhumerus -37.4504 -14.7808 90.342
lradius 64.2688
lwrist 2.76439
lhand -6.18041 14.5307
lfingers 7.12502
lthumb 19.6589 43.5567
rfemur 1.5864 12.5129 18.6308
rtibia 12.5701
rfoot -10.1302 -13.2054
rtoes -10.8077
lfemur 4.19779 -12.3398 -16.3492
ltibia 7.11537
lfoot -8.02735 10.9282
ltoes -12.0767
7
root 0.315056 16.1313 -0.0206094 -0.266437 -0.496103 -1.4633
lowerback 11.2727 1.17796 -2.04257
upperback -0.0523355 1.24794 -0.753138
thorax -6.41392 0.663361 0.152497
lowerneck 0.763062 -12.6221 -18.1535
upperneck 11.7638 -18.4054 14.7265
head 6.50752 -9.20119 6.16428
rclavicle -8.15017e-015 -9.54166e-015
rhumerus -29.445 3.08165 -94.6077
rradius 26.0392
rwrist 8.94971
rhand -16.1737 10.6376
rfingers 7.12502
rthumb 10.0325 -19.1033
lclavicle -8.15017e-015 -9.54166e-015
lhumerus -37.4344 -14.7589 90.3302
lradius 64.3122
lwrist 2.81853
lhand -6.1619 14.5417
lfingers 7.12502
lthumb 19.6767 43.5658
rfemur 1.58582 12.4231 18.5757
rtibia 12.541
rfoot -10.0626 -13.1612
rtoes -10.9579
lfemur 4.1543 -12.3672 -16.3891
ltibia 7.15259
lfoot -8.05111 10.9316
ltoes -11.9571
8
root 0.316495 16.1325 -0.0216246 -0.244365 -0.489847 -1.46478
lowerback 11.2382 1.1689 -2.00618
upperback -0.0420734 1.24091 -0.767368
thorax -6.38231 0.658345 0.119104
lowerneck 0.671961 -12.6277 -18.2133
upperneck 11.9658 -18.4183 14.7182
head 6.59415 -9.20508 6.16007
rclavicle 2.6985e-014 -1.74931e-014
rhumerus -29.4799 3.04629 -94.6163
rradius 26.1233
rwrist 8.97044
rhand -16.0839 10.6458
rfingers 7.12502
rthumb 10.1192 -19.0908
lclavicle 2.6985e-014 -1.74931e-014
lhumerus -37.434 -14.7091 90.311
lradius 64.3476
lwrist 2.77067
lhand -6.13403 14.445
lfingers 7.12502
lthumb 19.7035 43.4664
rfemur 1.58676 12.3649 18.558
rtibia 12.4923
rfoot -10.0655 -13.0873
rtoes -10.7777
lfemur 4.09622 -12.3719 -16.3891
ltibia 7.21251
lfoot -8.08308 10.9235
ltoes -11.9609
9
root 0.316983 16.1331 -0.0225782 -0.241012 -0.491181 -1.60445
lowerback 11.2315 1.14725 -1.85205
upperback -0.0295562 1.23489 -0.734235
thorax -6.3624 0.650952 0.068488
lowerneck 0.599021 -12.643 -18.2588
upperneck 12.1544 -18.444 14.6944
head 6.673 -9.21618 6.14839
rclavicle 8.44835e-015 -3.97569e-015
rhumerus -29.4997 3.00109 -94.6042
rradius 26.1791
rwrist 9.05161
rhand -16.0258 10.7505
rfingers 7.12502
rthumb 10.1752 -18.9834
lclavicle 8.44835e-015 -3.97569e-015
lhumerus -37.4104 -14.7071 90.2998
lradius 64.3607
lwrist 2.79948
lhand -6.16382 14.4796
lfingers 7.12502
lthumb 19.6749 43.5039
rfemur 1.63787 12.4301 18.7173
rtibia 12.3959
rfoot -10.0717 -13.1141
rtoes -10.2721
lfemur 4.03671 -12.3718 -16.2343
ltibia 7.33732
lfoot -8.14706 10.8624
ltoes -11.8922
10
root 0.316438 16.1333 -0.0229707 -0.238649 -0.463461 -1.67349
lowerback 11.2064 1.12658 -1.79894
upperback -0.00366328 1.21639 -0.718968
thorax -6.31965 0.640196 0.0585967
lowerneck 0.461432 -12.6782 -18.1813
upperneck 12.374 -18.4768 14.5605
head 6.75112 -9.22697 6.07774
rclavicle -1.51076e-014 3.18055e-015
rhumerus -29.4977 2.98833 -94.6217
rradius 26.2115
rwrist 9.04967
rhand -16.14 10.8212
rfingers 7.12502
rthumb 10.0651 -18.9181
lclavicle -1.51076e-014 3.18055e-015
lhumerus -37.381 -14.7335 90.2654
lradius 64.3989
lwrist 2.84807
lhand -6.20097 14.498
lfingers 7.12502
lthumb 19.6392 43.526
rfemur 1.69709 12.4815 18.8086
rtibia 12.2941
rfoot -10.0375 -13.2117
rtoes -10.1614
lfemur 3.95316 -12.4004 -16.1538
ltibia 7.47701
lfoot -8.19719 10.8222
ltoes -11.7967
